<?xml version="1.0" encoding="utf-8"?>
<!-- Generator: Adobe Illustrator 27.3.1, SVG Export Plug-In . SVG Version: 6.00 Build 0)  -->
<svg version="1.1"
	 id="svg1" xmlns:svg="http://www.w3.org/2000/svg" xmlns:inkscape="http://www.inkscape.org/namespaces/inkscape" xmlns:sodipodi="http://sodipodi.sourceforge.net/DTD/sodipodi-0.dtd" inkscape:export-filename="byte.svg" inkscape:export-xdpi="1000" inkscape:version="1.3.2 (091e20e, 2023-11-25, custom)"
	 xmlns="http://www.w3.org/2000/svg" xmlns:xlink="http://www.w3.org/1999/xlink" x="0px" y="0px" viewBox="0 0 769 760"
	 style="enable-background:new 0 0 769 760;" xml:space="preserve">
<style type="text/css">
	.st0{fill:#141414;}
	.st1{fill:#333333;}
	.st2{fill:#0B0A0A;}
	.st3{fill:#0C0233;}
	.st4{fill:#1D0773;}
	.st5{opacity:0.64;fill:#00FF00;enable-background:new    ;}
	.st6{fill:#1A1A1A;}
	.st7{fill:#00FFFF;}
	.st8{fill:#090707;}
	.st9{fill:#2B0AAA;}
	.st10{fill:#302C2C;}
	.st11{fill:#5B5A5A;}
	.st12{enable-background:new    ;}
	.st13{fill:#0079AB;}

/* Animation for levitating and glowing */
#questionmark {
  animation: float 3s ease-in-out infinite;
  transform-origin: center;
  filter: drop-shadow(0 0 10px #00FF00);
}
#headall {
  animation: rotate-head 2s ease-in-out infinite;
  transform-origin: center; /* Adjust if necessary to ensure the head rotates around its center */
}

/* Float effect */
@keyframes float {
  0%, 100% {
    transform: translateY(0);
  }
  50% {
    transform: translateY(-20px);
  }
}
@keyframes rotate-head {
  0%, 100% {
    transform: rotate(0deg); /* Original position */
  }
  50% {
    transform: rotate(-5deg); /* Rotate slightly to the left */
  }
}


</style>
<sodipodi:namedview  bordercolor="#000000" borderopacity="0.25" id="namedview1" inkscape:current-layer="layer12" inkscape:cx="34.674627" inkscape:cy="79.796097" inkscape:deskcolor="#d1d1d1" inkscape:pagecheckerboard="0" inkscape:pageopacity="0.0" inkscape:showpageshadow="2" inkscape:window-height="705" inkscape:window-maximized="1" inkscape:window-width="1366" inkscape:window-x="-8" inkscape:window-y="-8" inkscape:zoom="2.2494834" pagecolor="#ffffff">
	</sodipodi:namedview>
<g id="g1" inkscape:groupmode="layer" inkscape:label="bytemagusquestion">
	<g id = "headall">
	<g id="head" transform="translate(-7.1838281,-3.3959295)" inkscape:label="head">
		<path id="path102" class="st0" d="M309.6,397.4c-19.5-1.7-6.4-19.4-10.2-26.5c-2-3.8,3-10.9,6.9-22.3c2-5.9-19.5-23.7-17.1-30.6
			c8.3-24.3,13.6-52.5,24.4-84.7c2.3-6.9,4.6-13.1,5-13.6c1.1-1.4,3.5-1.3,4.7,0.2c1.6,1.9,11,1.5,20.8-0.8
			c4.7-1.1,14.1-2.8,20.9-3.7c13.6-1.8,26.5-4.1,50.3-8.9c8.6-1.7,18.1-3.4,21-3.6c15.8-1.5,28.6-3.2,29.3-3.9
			c0.5-0.4,0.8-2.3,0.8-4.2c0-3.2,0.1-3.4,2.5-3.4c2.4,0,2.5,0.2,4.4,6.5c11.3,38.7,23.7,152.3,20,183.2c-2,17-22.2,65.6-38.6,61.2
			c-7.6-2.1,2.6,31.7-15.7,33.1C396.8,478.5,328.5,399,309.6,397.4L309.6,397.4z"/>
	</g>
			<g id="eyepiece" inkscape:groupmode="layer" inkscape:label="eyepiece">
		<path id="path114" sodipodi:nodetypes="scsccccccccccccccccccccccccs" class="st5" d="M479.9,222.3c-0.3,0-0.6,0-0.8,0
			c-1.1,0.1-2.1,0.3-3.2,0.5c-0.7,0.1-1.3,0.2-2,0.3c-0.6,0.1-1.1,0.2-1.6,0.3c-3,0.5-6.4,2-8.5,3.4c-0.4,0.2-0.7,0.4-1,0.6
			c-2.5,1.7-3.1,4.2-3.6,7c-0.3,2.5-0.4,5.1-0.4,7.6c0,2,0,3.7,0.6,5.5c0.7,1.8,2.3,2.9,3.9,3.9c1.9,1.1,3.9,2,5.9,2.9
			c1.8,0.8,3.7,1.7,5.5,2.6c1.2,0.6,2.5,1.2,3.7,1.7c1,0.4,2.1,0.7,3.2,0.9c0.7,0.1,1.4,0.3,2.1,0.4c1.1,0.2,2.2-0.1,3.2-0.6
			c1.6-1,2-2.2,2.2-3.9c0.1-1.6,0-3.3-0.1-4.9c-0.1-1.8-0.2-3.6-0.2-5.5c-0.1-1.9-0.2-3.8-0.4-5.7c-0.2-1.6-0.4-3.2-0.5-4.8
			c-0.1-1-0.2-2.1-0.3-3.1c-0.1-0.9-0.3-1.8-0.5-2.7c-0.2-0.8-0.4-1.6-0.7-2.4c-0.2-0.8-0.6-1.5-1.1-2.1c-0.7-0.9-1.8-1.3-2.9-1.6
			C481.6,222.3,480.7,222.3,479.9,222.3L479.9,222.3z"/>
	</g>
	<g id="eye" transform="translate(2.242478,-4.1722501)" inkscape:groupmode="layer" inkscape:label="eye">
		<ellipse id="path110" class="st6" cx="397.3" cy="266.3" rx="32.5" ry="30.3"/>
		<ellipse id="path111" class="st7" cx="397.1" cy="266.2" rx="26.1" ry="24.9"/>
	</g>
	<g id="eyeball" inkscape:groupmode="layer" inkscape:label="eye ball">
		<ellipse id="path112" cx="411.5" cy="263.4" rx="9.4" ry="11"/>
	</g>
	<g id="brow" inkscape:groupmode="layer" inkscape:label="brow">
		<path id="path113" d="M351.7,230c0.6,0.5,1.1,1,1.8,1.5c0.9,0.7,2.4,1.4,3.4,1.8c2.5,1.1,5.2,1.9,7.8,2.7
			c8.8,2.6,17.7,4.4,26.7,6.2c11,2.3,22,4.9,33,7.5c1.6,0.4,3.2,0.8,4.7,1.2c13.4,3.4,18.2-15.3,4.8-18.6l0,0
			c-1.6-0.4-3.3-0.8-4.9-1.2c-11.1-2.7-22.3-5.3-33.5-7.6c-8.3-1.8-16.7-3.4-24.9-5.8c-1.8-0.6-2.6-0.8-4.3-1.4
			c-0.4-0.1-0.7-0.3-1-0.4c-0.1,0-0.2-0.1-0.3-0.1c0,0,0,0.1,0.1,0.1c0.4,0.3,0.7,0.7,1.1,1C356.7,207,342.4,220,351.7,230
			L351.7,230z"/>
	</g>
	<g id="hat" transform="translate(0.56110349,-40.657828)" inkscape:label="Hat">
		<path id="path101" class="st4" d="M286.3,281.9c-7.7-0.5-22.2-2.7-28.3-4.4c-13.9-3.7-20.3-9.6-18.7-17.6
			c1.4-7.5,16.3-17,39.1-25.1c8.5-3,11.3-4.4,12.6-6.1c1.7-2.4,9.6-35.6,13.7-58c1.9-10.4,2.3-14.5,2.3-27.6
			c0-8.5-0.2-16.4-0.6-17.6c-0.7-2.4-2.2-3.1-11.8-5.7c-11.2-2.9-15.4-6.5-14.1-11.7c1.9-7.6,27.7-20.1,51.1-24.9
			c10.6-2.1,24.2-2.3,32.3-0.4c20.4,4.8,50.9,28.2,70.8,54.5c8.3,11,11.7,18.9,19.2,44.7c4.1,14.3,6.6,21.1,8.3,22.8
			c1,0.9,3.4,1.2,10.5,1.2c26.7,0,51.4,4.2,60.7,10.2c7.8,5.1,8.4,12.6,1.4,19.7c-22.6,23.1-137.1,46.9-223,46.3
			C300.1,282.3,288.6,282.1,286.3,281.9z M341,229.3c26.8-2.6,40.9-4.6,61.6-8.6c20.3-4,56.7-12.8,58-14.1c0.2-0.2-0.6-2.6-1.8-5.2
			c-1.2-2.6-3.9-10.6-5.9-17.6c-2-7-3.8-13-4-13.1c-0.2-0.2-5.3,1-11.4,2.5c-33.8,8.7-76.3,14.2-113.3,14.7
			c-11.7,0.2-21.5,0.5-21.7,0.7c-0.2,0.2-2.2,8.5-4.4,18.5c-2.2,10-4.6,19.4-5.3,20.8s-1.3,2.8-1.3,3
			C291.7,232.1,322.1,231.1,341,229.3z"/>
		<path id="path100" sodipodi:nodetypes="ssssssssssssss" class="st8" d="M289,230.9c0-0.2,0.6-1.6,1.3-3c0.7-1.5,3.1-10.8,5.3-20.8
			c2.2-10,4.4-19,4.6-19.2c0.2-0.2,12.8-2.1,24.5-2.7c37.3-1.9,79.2-5.5,112.4-13c6.1-1.4,14.2-3.7,15-1.9c0.1,0.2,2,6.1,4,13.1
			s4.7,15,5.9,17.6c1.2,2.6,2,5,1.8,5.2c-1.3,1.3-40.1,11.5-60.4,15.5c-30.9,6.1-73,12.5-97.3,12.5C298.2,234.1,289,231.1,289,230.9
			z"/>
	</g>
		<g id="beak" transform="matrix(0.95943078,0,0,1,-11.940147,-2.771674)" inkscape:label="Beak">
		<path id="path108" sodipodi:nodetypes="sscccsscsssscss" class="st10" d="M499.5,334.1c-13.5-0.9-27.6-2.2-31.3-2.9l-6.6-1.6
			l-5.3-3.4l-4.4-4l-2.1-3.2c-1.1-1.7-1.5-4.5-1.5-5.8v-2.4l11.9,0.6c23.5,1.2,40.1,2.4,62.4,4.5c12.4,1.2,29.8,2.8,38.6,3.6
			c16.2,1.4,26.5,2.8,27.3,3.7c0.2,0.3-0.3,1.1-1.1,1.9c-4.3,3.9-15.9,8.1-27.7,10C551.1,336.4,527.9,336,499.5,334.1z"/>
		<path id="path109" sodipodi:nodetypes="ssssscssscccsss" class="st11" d="M601.6,324.2c-1.1,0-12.6-1.2-29.8-2.4
			c-9.6-0.7-28.5-2.8-42.2-3.5c-24.4-1.3-43.2-3.7-68.6-4.7c-7.3-0.3-13.7-0.9-14.2-1.4c-2.7-2.1,0.1-9.6,7.4-19.9
			c14-19.7,25.6-32.2,33.3-36c7.6-3.7,16.7-3,28.6,2.3c21.1,9.3,76.2,43,86.7,53l4.6,4.7l0.8,2l-1.4,2.4l-2.3,1.9
			C603.2,323.8,601.8,324.4,601.6,324.2L601.6,324.2z"/>
	</g>

	</g>

	<g id="feet" inkscape:groupmode="layer" inkscape:label="feet">
		<path id="path139" sodipodi:nodetypes="scccccccccscssscccccsccscccccccscccccccccccsscc" class="st1" d="M328.1,638.6
			c-0.8,0-1.5,0-2.3,0.1c-1.2,0.1-2.4,0.3-3.6,0.6c-0.3,0.1-0.6,0.1-0.9,0.2c0,0,0,0-0.1,0c0,0-0.1,0-0.1,0.1
			c-0.2,0.1-0.4,0.2-0.5,0.2c-3.2,1.4-6.3,2.8-9.5,4.1c-8,3.1-16,6.2-23.8,9.7c-7.2,3.2-14,7.2-20.3,11.8c-3.3,2.8-7.2,5.7-9.2,9.6
			c-0.3,0.6-0.5,1.2-0.7,1.8c-0.1,0.7-0.4,1.3-0.2,2c0.3,1,0.9,2,1.7,2.8c0.7,0.6,1.6,0.9,2.5,1.2c3.2,1,6.5,0.5,9.7,0.1
			c7.2-1.2,14.2-3.6,21-6.1c1.6-0.6,3.2-1.2,4.8-1.8c-0.2,0.2-0.4,0.4-0.5,0.5c-3.5,3.8-7,7.5-10.4,11.4c-2.2,2.5-4.2,5.3-5.4,8.5
			c-0.2,0.6-0.4,1.2-0.5,1.9c-0.1,0.6-0.2,1.3-0.2,1.9c0.2,2.4,1.6,4.1,4,4.8c1.6,0.5,2.7,0.3,4.3,0.1c5.1-1.1,9.5-3.7,14-6.3
			c4.6-2.5,9-5.3,13.2-8.3c1.8-1.3,3.5-2.7,5.1-4.1c-0.6,2.4-1.1,4.9-1.7,7.3c-0.8,3.7-1.4,7.3-1.9,11c-0.4,3.4-0.3,6.7,0.6,10
			c0.8,2.1,2.1,4.7,4.5,5.5c0.7,0.2,1.4,0.2,2.1,0.4c0.7-0.1,1.3-0.1,2-0.3c3.5-0.9,5.9-3.4,8.1-6c3.6-4.5,6.3-9.6,9-14.7
			c2.5-4.8,4.4-9.9,6.3-14.9c1.6-4.4,2.9-8.8,4-13.3c0.9-3.6,1.4-7.3,1.5-11c0.1-3.8-0.8-7.3-2.4-10.8c-1.8-3.5-5-5.7-8.5-7.3
			c-2.5-1.1-5.1-1.7-7.8-2.1c-1.9-0.3-3.7-0.5-5.6-0.6C329.7,638.6,328.9,638.6,328.1,638.6L328.1,638.6z"/>
		<path id="path139-5" sodipodi:nodetypes="scccccccccscssscccccsccscccccccscccccccccccsscc" class="st1" d="M465.5,606.5
			c0.8,0,1.5,0,2.3,0.1c1.2,0.1,2.4,0.3,3.6,0.6c0.3,0.1,0.6,0.1,0.9,0.2c0,0,0,0,0.1,0c0,0,0.1,0,0.1,0.1c0.2,0.1,0.4,0.2,0.5,0.2
			c3.2,1.4,6.3,2.8,9.5,4.1c8,3.1,16,6.2,23.8,9.7c7.2,3.2,14,7.2,20.3,11.8c3.3,2.8,7.2,5.7,9.2,9.6c0.3,0.6,0.5,1.2,0.7,1.8
			c0.1,0.7,0.4,1.3,0.2,2c-0.3,1-0.9,2-1.7,2.8c-0.7,0.6-1.6,0.9-2.5,1.2c-3.2,1-6.5,0.5-9.7,0.1c-7.2-1.2-14.2-3.6-21-6.1
			c-1.6-0.6-3.2-1.2-4.8-1.8c0.2,0.2,0.4,0.4,0.5,0.5c3.5,3.8,7,7.5,10.4,11.4c2.2,2.5,4.2,5.3,5.4,8.5c0.2,0.6,0.4,1.2,0.5,1.9
			c0.1,0.6,0.2,1.3,0.2,1.9c-0.2,2.4-1.6,4.1-4,4.8c-1.6,0.5-2.7,0.3-4.3,0.1c-5.1-1.1-9.5-3.7-14-6.3c-4.6-2.5-9-5.3-13.2-8.3
			c-1.8-1.3-3.5-2.7-5.1-4.1c0.6,2.4,1.1,4.9,1.7,7.3c0.8,3.7,1.4,7.3,1.9,11c0.4,3.4,0.3,6.7-0.6,10c-0.8,2.1-2.1,4.7-4.5,5.5
			c-0.7,0.2-1.4,0.2-2.1,0.4c-0.7-0.1-1.3-0.1-2-0.3c-3.5-0.9-5.9-3.4-8.1-6c-3.6-4.5-6.3-9.6-9-14.7c-2.5-4.8-4.4-9.9-6.3-14.9
			c-1.6-4.4-2.9-8.8-4-13.3c-0.9-3.6-1.4-7.3-1.5-11c-0.1-3.8,0.8-7.3,2.4-10.8c1.8-3.5,5-5.7,8.5-7.3c2.5-1.1,5.1-1.7,7.8-2.1
			c1.9-0.3,3.7-0.5,5.6-0.6C463.9,606.5,464.7,606.5,465.5,606.5L465.5,606.5z"/>
	</g>
	<g id="leftarm" inkscape:groupmode="layer" inkscape:label="leftarm">
		<path id="path128" sodipodi:nodetypes="cccccccccccccscccccscccscscscscccccccscccccccc" class="st2" d="M541.2,378.9
			c-0.8,0-1.6,0.1-2.3,0.5c-0.6,0.3-1.2,0.7-1.7,1.2c-0.7,0.6-1.4,1.2-2,1.8c-0.8,0.8-1.6,1.5-2.3,2.3c-1,1-2,2.1-2.9,3.1
			c-1.9,2.1-3.7,4.2-5.4,6.4c-2.3,2.9-4.6,5.8-6.6,9c-2.3,3.6-4.5,7.4-6.5,11.2c-2.1,4.1-4.1,8.3-5.6,12.7
			c-1.2,3.4-2.3,6.9-2.5,10.6c0,0.5-0.1,1.1,0,1.6c0.1,2.6,0.7,5.1,2.1,7.2c0.3,0.4,0.6,0.8,0.9,1.2c1.8,2,4.3,3.3,6.7,4.4
			c3.9,1.5,7.9,2.7,11.9,3.7c5.1,1.1,10.2,1.9,15.5,1.9c2.6,0,3.3,0,6-0.2c4.4-0.3,8.9-0.8,13.2-1.6c3.3-0.6,4.2-0.7,7.4-1.4
			c4.7-1,9.3-2.3,13.8-3.6c7.9-2.3,15.7-4.9,23.3-8.1c7.8-3.4,15.7-6.8,22.7-11.6c0.9-0.7,1.9-1.3,2.8-2c3.6-2.8,6.8-6.1,9.5-9.6
			c1-1.5,1.6-2.2,2.5-3.8c1.1-1.9,1.7-4.1,2-6.3c0-1.4,0.1-1.8-0.2-3.2c-0.5-2-1.7-3.7-3.2-5.1c-0.4-0.3-0.8-0.7-1.3-1
			c-2.2-1.5-4.8-2.2-7.4-2.6c-4.1-0.5-8.3-0.6-12.4-0.6c-3.5,0-7.1,0.1-10.6,0.2c0.2-0.3,0.4-0.7,0.6-1c0.2-0.5,0.3-1.1,0.4-1.6
			c-0.1-0.5,0-1-0.2-1.5c-0.7-2.6-3.3-4-5.6-4.9c-1.7-0.6-2-0.7-3.8-1.1c-3.4-0.8-7-1.2-10.5-1.6c-7-0.8-14.1-1.6-21.1-2.3
			c-6.4-0.8-12.7-1.6-19-2.5c-1.7-0.2-3.3-0.5-5-0.9c0,0,0,0,0,0c-0.4-0.3-1.1-0.3-1.6-0.5C542.2,379.1,541.7,379,541.2,378.9
			L541.2,378.9z"/>
		<path id="path126" class="st3" d="M487.2,357.9c-0.1,0.3-0.2,0.5-0.3,0.8c-0.3,0.8-0.7,1.7-1,2.5c-0.7,1.7-1.3,3.5-1.8,5.3
			c-0.9,3.4-1.7,6.9-2.3,10.4c-0.8,4.4-1.7,8.7-2.4,13.1c-1,6.4-1.9,12.9-2.5,19.4c-0.5,5.6-1.2,11.2-1.7,16.8
			c-0.3,4.5-0.5,9-0.4,13.5c0,1.6,0.1,3.3,0.2,4.9c0,0.4,0.1,0.8,0.1,1.1c0,0.1,0,0.1,0,0.2c0.3,0.1,0.7,0.1,1,0.2
			c2.4,0.5,4.7,1.1,7,1.7c3.2,0.8,6.4,1.6,9.5,2.7c4.4,1.7,8.7,3.7,12.6,6.4c3.5,2.2,7.1,4.5,10.5,6.8c1.2,0.8,2.4,1.7,3.6,2.6
			c0.1-0.4,0.1-0.8,0.2-1.3c0.5-3.7,1.3-7.4,2.2-11c1-4.3,2-8.6,3.1-12.9c1.3-4.9,2.6-9.7,4-14.5c1.6-5.4,3.2-10.9,5-16.3
			c1.5-4.7,3-9.4,4.6-14c1.5-4.2,3.2-8.3,5.1-12.3c1.4-3.2,2.8-6.5,4.2-9.8c0.3-0.7,0.7-1.3,1-1.9c-0.8,0.1-1.6,0.2-2.4,0.3
			c-3.5,0.3-6.9,0.3-10.4-0.1c-4.7-0.6-9.3-1.4-13.8-2.5c-4.2-1-8.4-1.9-12.6-3.2c-3.8-1.2-7.5-2.5-11.1-4.1
			c-3.7-1.5-7.4-3.1-11.1-4.7C487.5,358.1,487.4,358,487.2,357.9L487.2,357.9z"/>
	</g>
	<g id="body" inkscape:groupmode="layer" inkscape:label="body">
		<path id="path138" sodipodi:nodetypes="ccssccccccccccccccccccccccccccc" class="st0" d="M466.7,526c-3-0.1-5.4,1.4-8.8,3.7
			c-1,0.9-2.1,1.7-3,2.7c-5.8,6.3-10.6,14.9-14.1,22.7c-1,2.1-1.8,4.3-2.7,6.4c-4.8,11.9-7.4,24.4-9.5,37
			c-1.3,8.1-2.3,16.2-3.1,24.4c-0.4,4.8-1,9.6-1.7,14.4c-0.5,3.1-1.3,6.1-2,9.1c-0.4,1.4-0.7,2.7-1,4.1c-0.2,1.1-0.5,2.1-0.9,3.1
			c-0.3,0.9-0.5,1.7-0.8,2.6c-0.2,0.6-0.4,1.3-0.6,1.9c-0.2,0.4-0.3,0.8-0.3,1.2c-0.3,0.2-0.6,0.3-0.9,0.5c-3.3,1.5-1.2,6.1,2.1,4.6
			c3.8-1.9,7.2-4.4,10.8-6.6c7.6-4.6,15-9.5,21.9-15.1c7.2-6,13.7-12.8,20-19.7c4.7-5.3,9.2-10.8,13-16.8c1.2-2,2.3-4,2.6-6.4
			c0-1.2,0.3-2.4,0.5-3.6c0.5-2.3,0.4-4.7,0.3-7.1c-0.3-6-0.9-12-1.5-18c-0.7-6.5-1.6-12.9-2.6-19.3c-0.9-5.5-1.9-10.7-4.1-15.9
			c-1.9-3.9-5-6.6-8.8-8.6C469.6,526.5,468.1,526.1,466.7,526L466.7,526z M424.7,655.2C-119.1-80.3-119.1-80.3,424.7,655.2z"/>
		<path id="path124" sodipodi:nodetypes="cccscssccscsccccccsscccccsccccccscsccccccc" class="st4" d="M278.8,314.5
			c-6,14.9-12.3,29.6-18.6,44.3c-15.6,35-29.7,70.5-43,106.3c-10.5,29.8-21.3,59.9-25.8,91.3c-0.6,4.3-0.9,8.6-1.4,12.9
			c-0.1,10.1,0,20.5,4.2,29.9c1.1,2.5,2.4,4.9,4.1,7c5.3,6.5,11.4,9.9,18.4,14.7c12.7,8.2,26.6,14.3,40.5,20.3
			c24.8,14,52.7,19.3,80.8,23.7c11.5,1.8,17.7,2.4,29.2,3.7c16.3,1.7,32.7,3.2,49.1,2.7c5.8-0.2,8.9-0.5,13.2-1
			c0.2-0.3,0.4-0.6,0.7-0.8c0.7-1.8,1.2-3.7,1.8-5.5c1.9-6,3.8-12.1,5.6-18.1c3.5-12.1,6.8-24.2,10.3-36.3
			c3.9-13.3,7.8-26.5,12.8-39.5c0.6-1.6,1.6-4.2,2.4-5.9c0.3-0.6,0.4-1.2,0.8-1.8c0.4-0.6,0.8-1.7,1.6-1.7c3.9,0.1,3.8,0.8,4.1,2.7
			c0.1,4.6,0,9.1,0,13.7c0,11.5,0.2,22.9,0.6,34.4c0.2,7.1,0.5,14.2,0.7,21.3c2.1-2.6,4.1-5,6.8-8.8c7.3-10.3,13.4-21.3,17.9-33
			c5-13.8,9.5-28,8.7-42.8c-0.8-14.1-2.6-28.2-5-42.1c-3-18.7-5.8-37.4-7.7-56.2c-2.4-24.1-4.1-48.3-4.1-72.6
			c0.1-11.1,0.5-22.2,1.3-33.2c-1.8,0.8-2.3,2.1-4,3c-8.4,4.2-10.1,7.4-17,13.6c-3.2,3.2-5.8,5.2-8.6,8.3
			c-2.3,2.6-10.7,16.8-14.8,15.1c-5.4-3.7-11.4-5-17.3-7.9c-16.1-8.3-27.7-10.5-44.9-16c-22.7-7.2-40-12.6-70.9-28.8
			c-9.9-4-21-16-32.1-17C279,314.6,278.9,314.6,278.8,314.5L278.8,314.5z"/>
	</g>

	<g id="rightarm" inkscape:groupmode="layer" inkscape:label="rightarm">
		<path id="path137" sodipodi:nodetypes="ccccccccccsccccsccssccccccccscscccccccssccccc" class="st1" d="M384.3,326.7
			c-1,0.1-2,0.5-2.9,1c-3.9,3.1,0.3-0.1-16.9,17.2c-3.7,4-7.2,8.3-10.4,12.7c-0.8,1-1.6,2.1-2.4,3.1c-1.3-0.2-2.8,0.5-3.1,2.3
			c-0.1,0.6-0.2,1.2-0.2,1.8c-0.8,1.1-0.6,2.2-0.1,3c0,0.7,0,1.5,0.1,2.2c0.4,6,1.4,11.9,2.5,17.8c1.1,4.8,2.4,9.7,4.5,14.2
			c0.4,0.9,0.9,1.8,1.3,2.6c2.5,4.7,5.9,8.7,9.6,12.6c2.1,2.1,4.5,4,7.1,5.6c1.6,0.9,3.2,1.6,4.9,2.1c1.2,0.4,2.4,0.6,3.6,0.9
			c0.2,0,0.4,0.1,0.6,0.1c-0.7,0.7-0.9,1.9-0.2,3.1c1.3,0.3,2.5,0.9,3.8,1c0.3,0,0.5-0.3,0.7-0.5c0.8-0.6,1.5-1.3,2.2-2.1
			c1.7,1.4,4.8,0.1,4.1-2.7l-0.7-0.8c3.3-3.5,6.4-7.1,9.3-10.9c5-6.7,9.9-13.6,14.4-20.6c4.3-6.7,8.5-13.5,12-20.7
			c2.5-5.3,4.6-10.7,6.4-16.3c1.6-4.5,3.2-9.1,4.3-13.7c0.6-3.1,1.2-6.6-0.6-9.5c-0.3-0.5-0.7-0.9-1.1-1.3c-0.4-0.3-0.9-0.7-1.3-1
			c-2.4-1.5-5.4-1.6-8.2-1.3c-3.6,0.6-7,1.6-10.4,2.8c-4.3,1.6-8.6,3.2-12.9,4.7c-4.8,1.7-9.6,3.4-14.4,5.2
			c-0.4,0.1-0.6,0.2-0.9,0.3c0.1-0.3,0.1-0.6,0.2-1c0.4-3.4,0.7-6.9-0.3-10.2c-0.6-1.3-0.7-2-1.9-2.9
			C386.3,326.9,385.3,326.7,384.3,326.7z M388.5,345.2C-14.6-50.3-14.6-50.3,388.5,345.2z"/>
		<path id="path136" sodipodi:nodetypes="scccccccccccsccccccccccccsscsccccsssccccc" class="st9" d="M352.9,348.8
			c-1.6,0-3.2,0.7-4.6,1.5c-3.2,2.1-6.2,4.5-9,7c-4.4,4.1-8.7,8.3-12.9,12.6c-5,4.9-10.2,9.4-16.4,12.7c-5.4,3-11,5.6-16.6,8.2
			c-3.5,1.7-7,3.5-10.5,5.1c-0.1,0-1,0.4-1.2,0.5c-0.8-3-1.3-6.1-2.4-9c-1.4-3.6-3.1-7-5.9-9.7c-2.3-2-4.9-3.6-8.1-3.2
			c-4.8,0.8-9,3.3-12.8,6.3c-2.6,2.2-3.6,2.9-6.1,5.4c-4.2,4.3-7.6,9.3-10.7,14.4c-11.5,22.1-11.9,21.4-19,35.9
			c-1.6,3.3-4,6.7-4,10.4c0.4,4.7,1.8,7.6,5.3,10.9c4.3,3.7,9.3,6.4,14.6,8.2c6.7,2.3,13.5,4.2,20.4,5.7c7.1,1.6,14.3,3.2,21.5,4.4
			c7.3,1,14.6,1.8,22,1.7c6.8-0.1,13.6-0.5,20.4-1.5c7-1,14-2.4,20.8-4.4c8.1-2.2,16.2-4.7,24-7.8c9.8-4,19.3-8.5,28.7-13.4
			c3.1-1.6,5.4-2.8,8.4-4.5c2.5-1.4,5.3-2.9,7.4-5c0.5-0.5,0.8-1,1.2-1.5c0.3-0.5,0.6-1.1,0.8-1.6c0.9-3-0.5-5.9-1.7-8.5
			c-2.3-4.2-5.1-8-8-11.7c-15.1-17.2-28.4-35.5-36.8-56.9c-1.4-3.8-2.4-8-5.4-10.9c-0.5-0.3-1-0.7-1.6-0.9
			C354,348.9,353.5,348.8,352.9,348.8z M221.3,453.9C-23.9-73.6-23.9-73.6,221.3,453.9z M281.8,396.8
			C281.8,396.8,281.8,396.8,281.8,396.8C282.3,397.6,282,397.2,281.8,396.8z"/>
	</g>

	<g id="questionmark" inkscape:groupmode="layer" inkscape:label="QuestionMark">
		<g class="st12">
			<path class="st13" d="M634.6,315.1c-4.1,0-7.8-1.1-10.9-3.4c-3.1-2.3-4.7-4.9-4.7-7.8c0-5,6.4-11.2,19.3-18.6l36.1-19.7
				c13-8.1,19.5-15.5,19.5-22.2c0-8.5-5.5-16.3-16.5-23.4c-10.6-6.9-21.8-10.4-33.7-10.4c-6.3,0-14.4,2.4-24.2,7.1
				c-9.8,4.7-15.8,7.1-18.1,7.1c-4.1,0-7.7-1.2-10.6-3.6c-3-2.4-4.5-5.1-4.5-8.1c0-5.8,7.7-11.5,23.1-17.2
				c13.8-5.1,25.2-7.7,34.3-7.7c20.2,0,38.6,5.7,55.1,17.2c16.5,11.5,24.8,24.5,24.8,39.1c0,10.7-4.7,20.1-14.2,28.4
				c-5.6,5-16.1,11.4-31.4,19.3c-15.4,8.1-26.1,14.7-32.2,19.7C642.4,313.6,638.6,315.1,634.6,315.1z M626.2,356.7
				c-4.4,0-8.4-1.1-12-3.2c-3.6-2.2-5.4-4.8-5.4-7.8c0-4.5,1.7-8.6,5-12.3c3.7-4.1,8.5-6.1,14.4-6.1c9.7,0,14.5,4.3,14.5,12.9
				c0,4-1.3,7.6-3.9,10.8C635.6,354.8,631.4,356.7,626.2,356.7z"/>
		</g>
	</g>
</g>
</svg>
