<?xml version="1.0" encoding="utf-8"?>
<!-- Generator: Adobe Illustrator 27.3.1, SVG Export Plug-In . SVG Version: 6.00 Build 0)  -->
<svg version="1.1" id="Layer_1" xmlns="http://www.w3.org/2000/svg" xmlns:xlink="http://www.w3.org/1999/xlink" x="0px" y="0px"
	 viewBox="0 0 799.8 792" style="enable-background:new 0 0 799.8 792;" xml:space="preserve">
<style type="text/css">
	.st0{fill:#3B3838;}
	.st1{fill:#151515;}
	.st2{fill:#191919;}
	.st3{fill:#1E0875;}
	.st4{fill:#222121;}
	.st5{fill:#08EBFF;}
	.st6{fill:#332F2F;}
	.st7{fill:#5C5C5C;}
	.st8{fill:#121112;}
	.st9{fill:#BFBFBF;}
	.st10{fill:#524F4E;}
	.st11{opacity:0.57;fill:#14C912;enable-background:new    ;}
	.st12{fill:#F5FDF5;}
	.st13{fill:#100F0F;}
	.st14{fill:#282828;}
	.st15{fill:#171515;}
	.st16{fill:#35FBFF;}
	.st17{fill:#0EC0D8;}

	   @keyframes eyeballMovement {
        0% { transform: translateX(0); }
        5% { transform: translateX(-13px); }
        10% { transform: translateX(-13px); }
        15% { transform: translateX(13px); }
        20% { transform: translateX(13px); }
        25% { transform: translateX(0); }
        30% { transform: translateX(0); }
        40% { transform: translateX(0); }
        100% { transform: translateX(0); }
    }

    @keyframes levitate {
        0%, 100% { transform: translateY(0); }
        50% { transform: translateY(-10px); }
    }

	@keyframes nod {
	0% {
		transform: rotateX(0deg);
	}
	50% {
		transform: rotateX(-15deg);
	}
	100% {
		transform: rotateX(0deg);
	}
	}
    #animatedGroup {
        animation: levitate 2s ease-in-out infinite;
        transform-origin: center;
    }

    #eyeballright,
    #eyeballleft {
        animation: eyeballMovement 8s ease-in-out infinite;
        transform-origin: center;
    }

    #head1 {
	animation: nod 4s ease-in-out infinite;
	transform-origin: top center;
	}

</style>
<g id="animatedGroup">
	<g id="feet">
		<g>
			<g>
				<path class="st0" d="M305.7,725.2c-3.2,0-5.9-0.1-8.6,0c-3.7,0.2-6.3-2.4-7.5-6.4c-1.3-4.2,0.7-8.2,4.3-10.9
					c5.2-4,10.9-5,16.7-5.8c5.1-0.7,10.1-2,15.3-2.3c4-0.2,7.3-8.2,5.7-14c-2.2-7.9-2.8-16.1-3.6-24.6c3.2-1.5,5.5,2,8.1,3.1
					c4.5,2,9,4.3,13.7,5.7c2.4,0.7,3.4,5.3,2,9c-3,8-2.9,16-0.4,24.1c1.6,5,1.6,10.6-0.4,14.8c-4,8.6-7.2,18.2-14.3,23.8
					c-4.6,3.6-8.4,3.6-10.9-0.9c-1.6-3-1.7-6.5-0.6-11c-4.2,1.9-7.7,3.8-11.4,5.1C307.6,736.9,303.5,733.2,305.7,725.2z"/>
				<path class="st0" d="M420.5,672.7c8,3.1,15.3,4.9,23.3,4.2c-1.5,4.8-1.1,9.2-1.1,13.5c0,3.8,1.7,5.5,4.7,5.7
					c7.8,0.6,15.5,2,23.1,4.1c3.4,1,6.9,2,9.4,5.8c2.1,3.1,2.5,6.5,1.5,10.1c-1.1,3.6-3.7,4.8-6.4,5c-3,0.2-6,0-9.4,0
					c0.8,1.8,0.6,3.6,0.6,5.3c0,3.3-1.3,4.6-3.8,4.8c-4.5,0.3-8.4-2.2-12.5-4c-0.9-0.4-1.7-1.6-3.2-0.7c0.6,3.1,0.6,6.5-0.5,9.5
					c-1.9,5-7.2,5.9-11.3,1.6c-7-7.2-12-16.3-15-27.1c-1.4-5-0.9-9.5,2-13.6c3-4.2,1.4-9.2,0.9-13.8
					C422.4,679.9,421.4,676.7,420.5,672.7z"/>
			</g>
		</g>
	</g>
	<g id="Body">
		<g>
			<g>
				<path class="st1" d="M497,376.1c0.8,11.7,2.7,23.3,4.4,34.9c1.9,12.8,4.7,25.3,7.2,38c1.6,7.9,3,15.9,4.6,23.8
					c1.2,6,1.4,12,2.2,18c1.3,9.8,2.8,19.6,2.9,29.5c0.2,10.8,1.9,21.6,0.5,32.5c-1,7.7-1.3,15.6-3.4,23.1
					c-3.8,14-6.7,28.3-16.1,40.2c-0.9,1.2-1.6,2.6-2.4,4c-0.2,0.2-0.5,0.4-0.7,0.6c-2.4,2.7-4.7,5.4-7.2,8
					c-6.8,7.2-14.4,13.7-23.4,18.3c-2,1-1.5,2.5-1.7,4c-1.3,9.3-2.8,18.7-10.2,25.7c-8.6,8.2-24.5,9.1-33.6,3.7
					c-0.3-0.2-0.6-0.3-0.9-0.5c-6.7-4.2-11-10.1-12.9-17.6c-0.4-1.5-1.4-1.9-2.8-1.8c-7.1,0.5-14.2-0.6-21.3-0.8
					c-3.5-0.1-6.9-0.8-10.4,0c-1.3,0.3-1.8,0.4-2.3,2c-4.6,16-16.2,23.4-32.3,21.9c-12.3-1.2-20.2-8.8-23.5-21.7
					c-1-4-2.3-8.1-1.7-12.3c0.2-1-0.4-1.5-1.3-1.9c-18.5-10.4-32.3-25.1-41.5-43.7c-4.9-10-7.4-20.8-10.1-31.5
					c-3.9-16-2.5-32.5-2.2-48.7c0.2-9.4,2.1-18.7,2.9-28.1c1-12.3,3.1-24.4,5.2-36.5c2.2-12.7,5.7-25.1,7.8-37.8
					c1.9-12,5.7-31.8,6.8-43.9"/>
				<path class="st2" d="M496.3,620.7c0.2-0.2,0.5-0.4,0.7-0.6C497,620.6,496.8,620.8,496.3,620.7z"/>
				<path class="st2" d="M419.4,679.8c0.3,0.2,0.6,0.3,0.9,0.5C419.7,680.7,419.6,680.2,419.4,679.8z"/>
			</g>
		</g>
	</g>
	<g id="head1">
		<g id="head">
			<g>
				<g>
					<path class="st1" d="M387.1,404.8c-35.8,0-71.7-0.1-107.5,0.1c-3.7,0-3.7-1.9-3.2-4.5c1.3-6.3,1.2-12.7,2.2-19
						c1.3-8.1,1.4-16.3,2.1-24.4c0.7-7.7,1.7-15.3,2.6-23c1.4-11.8,2.3-23.7,4.4-35.4c2.1-11.7,3-23.7,5.6-35.4
						c3-13.4,8.8-25.6,16.6-36.6c9.7-13.8,22.1-23.8,36.6-30.7c8.9-4.2,18.2-7,28-8.2c5.2-0.7,10.3-0.7,15.5-0.7
						c17.3,0.2,33.7,4.9,48.6,14.5c16.4,10.5,29,25.1,37.3,43.9c4.4,10,6.8,20.6,8.1,31.6c1.5,12.1,3.8,24,5.5,36.1
						c0.8,5.7,1.5,11.4,1.9,17.1c0.6,9,2,17.9,2.9,26.9c0.7,7.1,1.1,14.2,1.7,21.4c0.6,6.9,0.9,13.9,2.2,20.7c0.9,4.9,0.3,5.6-4.3,5.6
						C458.3,404.8,422.7,404.8,387.1,404.8z"/>
				</g>
			</g>
		</g>
			<g id="eyeleft">
				<g>
					<path class="st4" d="M455.7,287.8c1,17.2-13.1,28.4-24.7,28.5c-14,0.2-26.2-13-26.3-28c0-15.4,11.4-27.7,25.6-27.8
						C445.2,260.5,455.7,271.8,455.7,287.8z M430.5,266.2c-11,0-20.1,9.9-20,22c0,11.9,9,21.8,19.8,21.8c11,0.1,20.1-9.8,20.2-21.8
						C450.6,276.1,441.5,266.2,430.5,266.2z"/>
					<path class="st5" d="M430.5,266.2c11,0,20,9.9,20,22c0,12.1-9.2,21.9-20.2,21.8c-10.9-0.1-19.8-9.9-19.8-21.8
						C410.5,276.1,419.5,266.2,430.5,266.2z"/>
				</g>
			</g>
			<g id="beak">
				<g>
					<g>
						<g>
							<path class="st6" d="M392.2,393.2c-4.2,3-6.4,3-10-0.4c-5.5-5.1-11.1-10.2-16.7-15.3c-5.7-5.2-11-10.8-15-17.3
								c-1.2-2.5-2-5.7-2.5-8.9c-0.4-2.4-0.9-5.4-0.1-8.4c3.7,9.8,11,17.5,18.8,24.7c6.2,5.8,13,11.1,19.5,16.6c1.1,0.9,2.1,0.9,3.3,0"
								/>
						</g>
					</g>
					<g>
						<g>
							<path class="st6" d="M383.7,393.5c2,2.7,6.4,3,10-0.4c5.5-5.1,11.1-10.2,16.7-15.3c5.7-5.2,11-10.8,15-17.3
								c1.2-2.5,2-5.7,2.5-8.9c0.4-2.4,0.9-5.4,0.1-8.4c-3.7,9.8-11,17.5-18.8,24.7c-6.2,5.8-13,11.1-19.5,16.6c-1.1,0.9-2.1,0.9-3.3,0
								"/>
							<path class="st7" d="M386.5,384.6c1.2,0.8,2.2,0.9,3.3,0c6.5-5.5,13.3-10.8,19.5-16.6c7.7-7.2,16.6-14.1,18.8-24.7
								c0.4-8-4.1-14.2-8.7-20.4c-4.6-6.3-9.9-12-16.2-17c-4.8-3.8-7.9-8-15.2-7.5c-7.3-0.5-10.4,3.5-15.2,7.3
								c-6.3,4.9-11.6,10.7-16.2,17c-4.6,6.2-9.1,12.4-8.7,20.4c2.2,10.6,11,17.5,18.8,24.7c6.2,5.8,13,11.1,19.5,16.6
								c1.1,0.9,2.1,0.9,3.3,0"/>
						</g>
					</g>
				</g>
			</g>
			<g id="eyeright">
				<g>
					<path class="st4" d="M369.1,288.1c1,17.2-13.1,28.4-24.7,28.5c-14,0.2-26.2-13-26.3-28c0-15.4,11.4-27.7,25.6-27.8
						C358.6,260.9,369.1,272.1,369.1,288.1z M344,266.5c-11,0-20.1,9.9-20,22c0,11.9,9,21.8,19.8,21.8c11,0.1,20.1-9.8,20.2-21.8
						C364,276.5,355,266.5,344,266.5z"/>
					<path class="st5" d="M344,266.5c11,0,20,9.9,20,22c0,12.1-9.2,21.9-20.2,21.8c-10.9-0.1-19.8-9.9-19.8-21.8
						C323.9,276.5,333,266.5,344,266.5z"/>
				</g>
			</g>
			<g id="eyeballright">
				<path class="st8" d="M352.7,288c0.1,5.4-4.1,10-9,10c-5,0-9.1-4.5-9.1-9.9c0-5.3,4-9.7,8.8-9.8C348.4,278.1,352.7,282.6,352.7,288z
					"/>
			</g>
			<g id="eyeballleft">
				<path class="st8" d="M439.3,288c0.1,5.4-4.1,10-9,10c-5,0-9.1-4.5-9.1-9.9c0-5.3,4-9.7,8.8-9.8C435,278.1,439.2,282.6,439.3,288z"
					/>
			</g>
			<g id="browright">
				<g>
					<g>
						<path d="M442,250.3c-13.4,2.5-25.7,5.6-37.3,12.5c-3.1,1.8-5.8,5.2-8.3,8.6c-2.5,3.4-2,5.2,1.1,7.4c5.3,3.6,11,4.1,16.6,2.3
							c10-3.3,19.9-7.2,29.7-11.4c2.8-1.2,5.5-3.7,7.8-6.3c2.8-3.2,2.3-7.7-1-9.8C447.7,251.8,444.4,251.2,442,250.3z"/>
					</g>
				</g>
			</g>
			<g id="browleft">
				<g>
					<g>
						<path d="M329.9,250.6c13.4,2.5,25.7,5.6,37.3,12.5c3.1,1.8,5.8,5.2,8.3,8.6c2.5,3.4,2,5.2-1.1,7.4c-5.3,3.6-11,4.1-16.6,2.3
							c-10-3.3-19.9-7.2-29.7-11.4c-2.8-1.2-5.5-3.7-7.8-6.3c-2.8-3.2-2.3-7.7,1-9.8C324.2,252.1,327.5,251.5,329.9,250.6z"/>
					</g>
				</g>
			</g>
			<g id="eyepieceholder">
				<g>
					<g>
						<path class="st9" d="M500.7,307.2c2.6,12.8-4.3,21.6-11.8,27.8c-5.8,4.8-13.6-1.6-13.7-11.1c0-4.3-1.2-8.4-1-12.7
							c0.2-3.6-2.2-4.2-4.6-4.6c-4.8-0.8-6.7-3-6.7-8.6c0-8-0.8-16.1,0.9-24c0.3-1.2,0.7-3.2,1.4-3.4c4.7-1.1,4.4-5.3,5.1-9.3
							c1.6-8.5,8.3-11.6,16-8c6.7,3.1,9,9.6,10.4,16.8c-3.1,2-7.2,3.9-6.7,8.4c0.8,7.7,1.3,15.5,2.1,23.2c0.3,2.6-0.7,6,1.7,7.8
							C497.1,308.9,498.1,307,500.7,307.2z"/>
						<path class="st10" d="M500.7,307.2c-2.2,0.9-3.8,2.9-6.9,2.4c-2.2-1.2-1.4-5.2-1.7-7.8c-0.8-7.7-1.3-15.5-2.1-23.2
							c-0.5-4.5,3.7-6.4,6.7-8.4c1.3,10,2.6,20,4.1,29.9C501.1,302.5,501.4,304.8,500.7,307.2z"/>
					</g>
				</g>
			</g>
			<g id="eyepiece">
				<g>
					<g>
						<path class="st11" d="M436.5,320c-9.8,0.1-17.6-2.5-24.9-9.1c-3.9-3.5-8-6.8-11.6-10.6c-2-2.2-2.7-4.7-3-7.7
							c-0.3-3.3-0.1-6.2-0.3-9.2c0-7.7,4.5-11.6,8.7-16c2-2.1,4.9-2.1,7.5-2.1c12.3-0.1,24.5-0.4,36.8,0c10.8,0.4,16.7,6.4,17.3,18.1
							c0.3,5.5,0.1,11,0,16.5c0,5.3-3.6,8.6-6.5,12.1C453.9,319.6,446.6,320.2,436.5,320z M404.5,284.4c1-7,3.4-9,9.9-9.8
							c3.2-0.4,6.7,0,9.8-1.8c-4.5-1.1-8.8-1.4-13.2-0.4C405.2,273.7,401.4,279.3,404.5,284.4z M453.9,307.1c-3.6,5.8-9.6,5.8-15.9,7
							C444.8,316.7,453.1,313.6,453.9,307.1z"/>
						<path class="st12" d="M404.5,284.4c-3.1-5,0.7-10.7,6.5-12c4.4-1,8.7-0.7,13.2,0.4c-3.1,1.8-6.6,1.4-9.8,1.8
							C407.9,275.3,405.5,277.3,404.5,284.4z"/>
						<path class="st12" d="M453.9,307.1c-0.8,6.5-9.2,9.6-15.9,7C444.3,312.9,450.4,312.9,453.9,307.1z"/>
					</g>
				</g>
			</g>
			<g id="hat">
				<g>
					<g>
						<path class="st3" d="M311.9,174.1c1.8-18.8,2.4-37.8,6.3-56.2c1.1-5.2-2.2-4.3-4-4.8c-7.7-2.2-15.4-3.7-23.1-5.9
							c-2.7-0.8-6.2-1.1-7.1-5.2c-1.2-5.3,1.9-8.9,4.4-12.2c19.1-24.6,41.4-36.4,68.8-29c27.7,7.5,53,21.2,73.8,46.1
							c14.6,17.4,21.8,41,29.5,63.9c-1.4,0.5-2.8,1.2-4.3,1.5c-21.7,3.3-43.5,5.2-65.4,5.6C364.5,178.4,338.2,176.5,311.9,174.1z"/>
						<path class="st3" d="M507,224.3c0.7,0.6,1.4,1.2,2,1.8c12.6,10.7,10.8,23.1-3.8,27.9c-8.6,2.9-17.6,3.1-26.4,4.1
							c-4.7,0.5-9.7,1.4-14.4,1.9c-0.2,0.2,0.2-0.2,0,0c-48.2,5.6-96.9,5.4-145.3,4.3c-0.3,0-1.8-0.3-2.1-0.4c-0.5-0.2,0.9,0,0,0
							c-16.5-0.8-33.8-3.6-49.8-8.6c-4.6-1.4-11-2-11.7-9.4c-0.6-7.3,4.9-11.3,9.3-14.6c13.2-9.8,28-14.9,42.2-21.7
							c0.5,0.7,0.9,2,1.5,2c29,3.1,58.1,4.5,87.2,2.8c17.3-1.1,34.6-3.3,51.8-5.7c6.4-0.9,13.1,1,19.2-2.7c0.4-0.2,0.8-0.3,1.2-0.1
							c13,4.8,25.8,10.3,38.1,17.6C506.4,223.8,506.7,224,507,224.3z"/>
						<path class="st13" d="M467.1,205.5c0.1,0.8-0.3,1.8-0.9,2.1c-6,3.7-12.1,1.8-18.8,3.5c-16,1.9-34.3,4-52,5.6
							c-29.2,2-58.4,0.4-87.5-3.1c-0.3,0-0.7-0.3-0.7-0.8c-0.2-1.7-0.1-1.8-0.1-2.8c0-4.3,0.5-9.3,1.2-13.9c0.5-7.6,1.8-15.4,2.5-23.1
							c0.1-1.1,0.9-1.9,1.9-1.8c25.7,2.6,51.5,4.7,77.2,4.2c21.9-0.4,43.7-2.6,65.4-6.3c0.9-0.1,1.7-0.5,2.5-0.9c0.9-0.4,2,0.1,2.3,1.2
							C463.3,181.1,465.3,193.3,467.1,205.5z"/>
					</g>
				</g>
			</g>
	</g>
	<g id="cloth">
		<path class="st3" d="M220,559.4C220.5,559,220.1,560.1,220,559.4C220.1,559.2,220.1,559.7,220,559.4
			C219.8,559.1,220.2,559.7,220,559.4C219.4,557.7,220.2,561.1,220,559.4C220.2,559.1,219.8,559.7,220,559.4
			C219.8,559.2,220.2,559.7,220,559.4C219.4,557.7,219.7,561,220,559.4C220.2,559.1,219.8,559.7,220,559.4
			C219.8,559.2,220.2,559.7,220,559.4C219.4,557.9,220,560.8,220,559.4C220.2,559.1,219.8,559.7,220,559.4
			C219.8,559.2,220.2,559.7,220,559.4C219.4,557.9,220,560.8,220,559.4C220.5,559.1,220.5,559.7,220,559.4
			C219.6,558.2,219.7,560.5,220,559.4C220,559.2,220,559.7,220,559.4L220,559.4C220.2,559.1,219.8,559.7,220,559.4
			C219.8,559.2,220.2,559.7,220,559.4C219.4,557.9,220,560.8,220,559.4C220.6,559.1,220.6,559.8,220,559.4
			C219.5,558.2,220.2,560.6,220,559.4C220.6,559.1,220.6,559.8,220,559.4c1.4-9,6-41.6,8.3-50.5c0.6-0.3,0.6-0.6,0-1
			c1-4,2-8.1,3-12.1c0.7-0.3,0.7-0.6,0-1c3.8-14.5,8.1-28.8,13.4-42.7c6.6-17.5,13-35,19.6-52.5c3.5-9.3,7.4-18.4,10.7-27.8
			c1.2-3.4,1.8-7.1,2.9-10.6c0.2,0,0.4-0.1,0.6-0.1c0.3,0,0.6,0,0.9,0c11.7,11.9,26.1,18.5,40.5,25.5c12.1,5.9,24.4,10.7,37.3,14.1
			c6.7,1.8,13.5,3.4,20.5,4c0.3,0.2,0.6,0.4,0.9,0.6c7,0.5,5.2-2,9,11.8c1-5.6,2.1-11.3,8.9-10.8c0.3,0.6,0.5,0.6,0.8,0
			c9.8-1.1,19.3-3.6,28.8-6.6c15.7-5,30.8-11.6,45.3-19.8c7.9-4.5,16-8.9,22.2-16.2c0.5-0.6,1.1-1.1,1.9-1c0.3,0,0.6,0,0.9,0
			c0.2,0,0.4,0,0.6,0.1c1.3,8.8,5,16.7,8.1,24.8c9.5,24.7,18.6,49.5,27.4,74.6c3.9,11.2,7.9,23,10.7,34.6c0.2,0.3-0.2-0.3,0,0
			c2.5,11.9,9.2,50.1,11.2,62.1c0.2,1.5-0.3-1.4,0,0c0.2,0.3-0.2-0.3,0,0c0.1,1-0.1-1,0,0c0.2,0.3-0.2-0.3,0,0c0.1,1.3-0.1-1.3,0,0
			c0,0.3,0-0.3,0,0c0.2,0.3-0.2-0.3,0,0l0,0c0,0.3,0-0.3,0,0c0,1.1,0-1.1,0,0c0.2,0.3-0.2-0.3,0,0c0.1,1.3-0.1-1.3,0,0
			c0,0.3,0-0.3,0,0c0.2,0.3-0.2-0.3,0,0c0.1,1.3-0.1-1.3,0,0c0,0.3,0-0.3,0,0c0.2,0.3-0.2-0.3,0,0c0.1,0.3-0.1-0.3,0,0
			c-0.3,1.4-0.6-1.3,0,0c-0.2,0.3,0.2-0.3,0,0c0.2,0.3-0.2-0.3,0,0c0.1,1.6-0.1-1.6,0,0c0,0.3,0-0.3,0,0c-0.1,0.3-0.1-0.3,0,0
			c-0.1,0.7-0.6-0.4,0,0l0,0c0,2.2,0-2.2,0,0c0,0.6,2.8,27.9,2.8,28.5c0,0.5,0.3,4.8,0.2,5.3c0.2,2.5-1.3-2.4,0,0
			c-1.9,12.1-9.6,22.9-18.1,29c-16.3,11.5-33.6,21.1-51.6,29.2c-12.8,5.8-26,10.1-39.2,14.3c-4.6,1.5-9.5,2.1-14.8,3.2
			c-8.7-33.5-17.7-67.1-26-100.8c-8.3-33.8-15.1-67.9-20.7-102.4c-1.8,7.4-2.5,14.8-4,22c-1.5,7.7-2.5,15.4-3.9,23.1
			c-2.9,16.4-6.7,32.5-10.5,48.7c-3.8,16.1-7.9,32.2-12,48.2c-4.7,18.3-9.5,36.6-14.2,54.9c-1,4-2.4,5-6.2,4
			c-19.8-4.8-39.1-11.3-57.5-20.5c-17-8.5-33.6-17.8-48.8-29.8c-5.6-4.5-10.3-9.8-12.3-17.4C216.5,594.9,220.1,563.1,220,559.4z"/>
	</g>
	<g id="armright_00000151513444068478057580000000024858825825870736_">
		<g id="armleft_00000142898377671614393980000002283087378968771513_">
			<g>
				<g>
					<path class="st1" d="M136.5,413.9c-11-3.2-20.5-10.4-29.1-19.1c-6.7-6.8-12.5-14.9-15.4-25.5c-2-7.4,0.3-14,6-16.1
						c3.3-1.2,6.9-2.3,10.3-2.4c13.6-0.5,27.3-0.8,40.3,5.5c-0.7,4.3-2.9,8-3.1,12.6c-0.3,8.9-2.2,17.5-2.5,26.5
						c-0.2,6.2,0.8,12.9-1.4,19C139.9,414.3,138.2,414.4,136.5,413.9z"/>
					<path class="st3" d="M141.6,395.5c0.3-9,2.2-17.7,2.5-26.5c0.2-4.7,2.4-8.3,3.1-12.6c4.4-2.8,8.4-1.6,12.6,1
						c4.3,2.8,8.6,5.6,13.3,7.6c6.4,2.7,13,4.4,19.5,6c12.2,2.9,24.6,4.9,37,5.7c5.8,0.4,11.7-0.3,17.6-0.8
						c10.2-0.8,20.4-2.2,30.5-3.8c7.8-1.3,14.7-0.7,21.3,4.7c4.8,3.9,9.4,7.5,11.5,14.8c1,3.5,1.6,7.1,2,10.5c1,9.7,1,19.3-5.5,26.9
						c-4.7,5.4-10,9.4-15.3,13.6c-16.3,12.7-33,24.9-50,36.1c-21,13.8-42.7,25.5-65.8,32.4c-7,2.1-14,4.5-21.3,3.9
						c-5-0.4-7.8-3.1-9.1-9c-1.9-8.7-3-17.5-3.6-26.5c-1.3-19-2.6-38-0.8-57.1c0.2-2.5,0.7-5.4-0.9-7.7
						C142.4,408.4,141.4,401.7,141.6,395.5z"/>
				</g>
			</g>
		</g>
	</g>

	<g id="staff">
		<ellipse class="st14" cx="667.7" cy="148.8" rx="65.9" ry="68.8"/>
		<g>
			<g>
				<path class="st15" d="M657.2,339.6c-0.1-19.6-0.1-39.2-0.2-58.8c6.6,0,13.3-0.1,19.9-0.1c-0.1,19.3-0.1,38.5-0.2,57.8"/>
				<path class="st14" d="M642.6,208.1c17.6,0.8,32.1,0.6,48.2,0.8c0.1,15,0.2,30,0.3,45c0,8.2,0,16.4,0,24.6c0,4.9-1.2,6-6.2,6
					c-2.4,0-4.8,0-7.3,0c-6.6,0-13.3,0.1-19.9,0.1c-4,0-7.9-0.1-11.9-0.1c-2.1,0-3.2-0.8-3.2-2.8c0-0.8-0.2-1.6-0.2-2.4
					c0-23.2,0-46.3,0-69.5C642.4,209.2,642.5,208.7,642.6,208.1z"/>
				<path class="st15" d="M677.7,536.2c-1.3,0.7-2.5,0.6-4,0.3c-3.1,0.5-6.5,0.7-10.8,0.4c-1.6-0.1-3.7,0.8-5-1
					c0-37.1-0.1-83.1-0.1-120.2c0-1.4,0-2.7,0-4.1c6.8-0.3,13.6-0.5,20.4-0.8c-0.9,1-0.8,2.3-0.8,3.5c0,37,0,82.8,0,119.8
					C677.4,534.9,677.6,535.6,677.7,536.2z"/>
				<path class="st14" d="M680.2,336.3c0,23.9,0,47.8,0,71.6c0,1.9,0.3,3.9-1.8,5.1c-6.8,0.3-13.6,0.5-20.4,0.8
					c-4.6,0.2-4.2-3.1-4.2-6c0-18.6,0.1-37.2-0.1-55.8c0-6.3,0.5-12.5-0.4-18.8"/>
				<path class="st14" d="M678.5,536.3c6.5,0,6.5,0,6.5,6.4c0,29.4,0,58.8,0,88.2c0,6-1.4,7.3-7.6,7.3c-7.4,0-14.8-0.2-22.2,0.1
					c-3,0.1-4-1.3-4.3-3.7c-0.1-1.2-0.1-2.5-0.1-3.7c0-29.4,0-58.8,0-88.2c0-6.1,0-6.1,6.1-6.4"/>
			</g>
		</g>
		<ellipse cx="667.7" cy="148" rx="53.4" ry="55.5"/>
		<ellipse cx="665.3" cy="155" rx="0.5" ry="0.5"/>
	</g>
	<g id="armleft">
		<g>
			<g>
				<path class="st1" d="M635.5,414.5c-2.2-6.1-1.2-12.8-1.4-19c-0.3-9-2.2-17.7-2.5-26.5c-0.2-4.7-2.4-8.3-3.1-12.6
					c13-6.2,26.7-6,40.3-5.5c3.5,0.1,7,1.2,10.3,2.4c5.7,2.1,8.1,8.6,6,16.1c-2.9,10.5-8.8,18.6-15.4,25.5
					c-8.5,8.8-18,15.9-29.1,19.1C639,414.4,637.2,414.3,635.5,414.5z"/>
				<path class="st3" d="M637,414.5c-1.6,2.3-1.1,5.2-0.9,7.7c1.8,19.1,0.5,38-0.8,57.1c-0.6,9-1.7,17.8-3.6,26.5
					c-1.3,6-4.1,8.6-9.1,9c-7.4,0.6-14.3-1.8-21.3-3.9c-23.2-7-44.9-18.6-65.8-32.4c-17-11.2-33.6-23.4-50-36.1
					c-5.3-4.1-10.7-8.2-15.3-13.6c-6.6-7.6-6.5-17.2-5.5-26.9c0.3-3.5,1-7.1,2-10.5c2.1-7.2,6.7-10.9,11.5-14.8
					c6.6-5.4,13.4-6,21.3-4.7c10.1,1.6,20.3,3,30.5,3.8c5.9,0.4,11.7,1.1,17.6,0.8c12.4-0.8,24.8-2.7,37-5.7c6.6-1.6,13.2-3.2,19.5-6
					c4.7-2,8.9-4.9,13.3-7.6c4.2-2.6,8.2-3.8,12.6-1c0.7,4.3,2.9,8,3.1,12.6c0.3,8.9,2.2,17.5,2.5,26.5
					C635.8,401.7,634.7,408.4,637,414.5z"/>
			</g>
		</g>
	</g>
	<g id="orb">
		<ellipse class="st16" cx="667.7" cy="148" rx="45.7" ry="45.7"/>
		<ellipse class="st17" cx="667.7" cy="148.8" rx="26.2" ry="26.1"/>
	</g>
</g>	
</svg>
