<?xml version="1.0" encoding="utf-8"?>
<!-- Generator: Adobe Illustrator 27.3.1, SVG Export Plug-In . SVG Version: 6.00 Build 0)  -->
<svg version="1.1" xmlns="http://www.w3.org/2000/svg" xmlns:xlink="http://www.w3.org/1999/xlink" x="0px" y="0px"
	 viewBox="0 0 612 792" style="enable-background:new 0 0 612 792;" xml:space="preserve">
<style type="text/css">
	.st0{fill:#3B3838;}
	.st1{fill:#151515;}
	.st2{fill:#191919;}
	.st3{fill:#1E1C1C;}
	.st4{fill:#1E0875;}
	.st5{fill:#222121;}
	.st6{fill:#08EBFF;}
	.st7{fill:#332F2F;}
	.st8{fill:#5C5C5C;}
	.st9{fill:#121112;}
	.st10{fill:#BFBFBF;}
	.st11{fill:#524F4E;}
	.st12{opacity:0.57;fill:#14C912;}
	.st13{fill:#F5FDF5;}
	.st14{fill:#100F0F;}
@keyframes eyeballMovement {
    0%, 100% { transform: translateX(0); }
    50% { transform: translateX(10px); }
	0%, 100% { transform: translateX(0); }
	-50% { transform: translateX(-10px); }
}

#eyeballright,
#eyeballleft {
    animation: eyeballMovement 1s ease-in-out forwards; /* Animation settings */
    animation-delay: 4s; /* Delay before the animation starts */
    transform-origin: center; /* Ensures movement is around the center of the eyeball */
}


</style>
<g id="feet">
	<g>
		<g>
			<path class="st0" d="M224.78,721.76c-3.31,0-6.18-0.11-9.05,0.03c-3.92,0.19-6.58-2.39-7.87-6.36c-1.37-4.2,0.76-8.21,4.46-10.94
				c5.43-4.01,11.48-5.04,17.57-5.78c5.35-0.65,10.62-1.96,16.04-2.27c4.24-0.24,7.7-8.24,6.01-14.03
				c-2.32-7.93-2.91-16.11-3.81-24.59c3.39-1.48,5.77,1.96,8.47,3.06c4.77,1.95,9.44,4.3,14.37,5.7c2.53,0.72,3.54,5.33,2.11,8.98
				c-3.11,7.95-3.08,15.99-0.44,24.12c1.63,5,1.63,10.6-0.44,14.79c-4.23,8.56-7.6,18.15-15.05,23.79
				c-4.79,3.63-8.84,3.58-11.45-0.91c-1.72-2.95-1.74-6.52-0.68-11.03c-4.4,1.89-8.1,3.82-11.95,5.08
				C226.71,733.47,222.44,729.77,224.78,721.76z"/>
			<path class="st0" d="M345.17,669.3c8.36,3.11,16.07,4.9,24.44,4.17c-1.58,4.85-1.16,9.18-1.11,13.46
				c0.05,3.77,1.82,5.52,4.9,5.73c8.17,0.56,16.27,1.97,24.25,4.12c3.55,0.96,7.27,2.05,9.91,5.85c2.17,3.12,2.66,6.5,1.54,10.09
				c-1.13,3.62-3.88,4.77-6.76,4.98c-3.13,0.23-6.28,0.05-9.88,0.05c0.81,1.85,0.64,3.56,0.67,5.27c0.05,3.34-1.33,4.64-4,4.83
				c-4.75,0.34-8.82-2.21-13.09-4.01c-0.97-0.41-1.81-1.64-3.32-0.67c0.68,3.1,0.63,6.51-0.53,9.48c-1.97,5.03-7.6,5.87-11.9,1.64
				c-7.31-7.19-12.57-16.27-15.75-27.1c-1.47-5.03-0.99-9.47,2.11-13.56c3.17-4.18,1.46-9.2,0.9-13.84
				C347.15,676.49,346.11,673.32,345.17,669.3z"/>
		</g>
	</g>
</g>
<g id="Body">
	<g>
		<g>
			<path class="st1" d="M425.47,372.71c0.85,11.72,2.81,23.29,4.61,34.91c1.97,12.76,4.89,25.34,7.6,37.95
				c1.71,7.93,3.16,15.89,4.8,23.82c1.23,5.97,1.47,12.03,2.28,18.03c1.33,9.8,2.91,19.65,3.08,29.49
				c0.19,10.82,1.95,21.57,0.5,32.54c-1.03,7.74-1.37,15.57-3.55,23.14c-4.01,13.95-7.08,28.26-16.85,40.15
				c-0.99,1.21-1.67,2.63-2.49,3.96c-0.25,0.2-0.49,0.4-0.74,0.6c-2.5,2.68-4.94,5.42-7.53,8.04c-7.17,7.25-15.08,13.69-24.51,18.31
				c-2.14,1.05-1.59,2.47-1.82,3.97c-1.41,9.33-2.93,18.67-10.7,25.7c-9.03,8.17-25.73,9.08-35.2,3.67
				c-0.3-0.17-0.61-0.35-0.91-0.52c-7.08-4.19-11.51-10.14-13.56-17.64c-0.42-1.54-1.47-1.88-2.97-1.77
				c-7.48,0.55-14.91-0.59-22.36-0.85c-3.66-0.13-7.24-0.83-10.93-0.03c-1.38,0.3-1.94,0.37-2.43,1.97
				c-4.86,16.03-16.98,23.4-33.87,21.86c-12.92-1.18-21.24-8.75-24.7-21.71c-1.07-4.02-2.39-8.08-1.74-12.33
				c0.16-1.04-0.4-1.45-1.32-1.94c-19.36-10.41-33.9-25.06-43.59-43.69c-5.19-9.97-7.79-20.83-10.55-31.54
				c-4.14-16.05-2.67-32.47-2.36-48.73c0.18-9.38,2.25-18.72,3.04-28.11c1.03-12.29,3.26-24.39,5.46-36.52
				c2.3-12.69,6-25.11,8.16-37.8c2.04-11.98,5.96-31.77,7.14-43.88"/>
			<path class="st2" d="M424.7,617.28c0.25-0.2,0.49-0.4,0.74-0.6C425.45,617.15,425.28,617.43,424.7,617.28z"/>
			<path class="st2" d="M344.05,676.44c0.3,0.17,0.61,0.35,0.91,0.52C344.35,677.25,344.23,676.81,344.05,676.44z"/>
		</g>
	</g>
</g>
<g id="head">
	<g>
		<g>
			<path class="st1" d="M310.14,401.37c-37.59,0-75.19-0.08-112.78,0.11c-3.89,0.02-3.87-1.93-3.33-4.47
				c1.33-6.26,1.27-12.68,2.31-18.96c1.35-8.06,1.42-16.26,2.24-24.38c0.77-7.68,1.76-15.34,2.68-22.99
				c1.42-11.82,2.39-23.69,4.57-35.44c2.17-11.73,3.13-23.74,5.84-35.35c3.13-13.44,9.23-25.58,17.39-36.57
				c10.22-13.76,23.14-23.84,38.35-30.72c9.36-4.24,19.13-7.01,29.35-8.24c5.45-0.66,10.85-0.74,16.28-0.68
				c18.2,0.19,35.34,4.95,51.01,14.49c17.19,10.48,30.42,25.13,39.13,43.94c4.63,9.99,7.12,20.6,8.55,31.6
				c1.57,12.08,3.94,24.04,5.79,36.08c0.87,5.66,1.55,11.37,1.98,17.08c0.68,9,2.13,17.89,3.09,26.85c0.76,7.1,1.18,14.24,1.8,21.35
				c0.6,6.91,0.93,13.86,2.3,20.68c0.98,4.85,0.33,5.61-4.56,5.61C384.8,401.37,347.47,401.37,310.14,401.37z"/>
		</g>
	</g>
</g>
<g id="armleft">
	<path class="st3" d="M422.64,564.24c-2.54,5.35-4.04,10.68-0.87,16.18c2.2,3.82,7.49,5.5,11.9,5.01
		c16.26-1.81,23.47-13.15,29.11-25.39c6.87-14.92,8.69-30.92,7.35-47.08c-0.89-10.75-4.03-21.13-6.93-31.57
		c-6.41-23.05-16.87-44.72-24.58-67.32c-3-8.8-5.11-17.82-7.94-26.65c-0.41-1.29-0.94-2.59-1.65-3.75
		c-1.38-2.24-3.99-2.01-5.65,0.12c-3.42,4.4-4.34,9.53-4.73,14.7c-0.64,8.45,1.76,16.71,2.23,25.09
		c0.64,11.58,6.53,21.86,8.34,33.15c1.73,10.76,5.21,21.19,6.49,32.11c1.08,9.15-0.3,18.03-0.89,27.04
		c-0.52,7.96-2.62,15.44-6.61,22.32c-3.21,5.53-7.09,10.74-11.52,15.49c-4.04,4.33-3.62,8.14,0.82,10.44
		C419.48,565.16,420.76,562.97,422.64,564.24z"/>
</g>
<g id="armright">
	<path class="st3" d="M198.72,571.56c2.54,5.35,4.04,10.68,0.87,16.18c-2.2,3.82-7.49,5.5-11.9,5.01
		c-16.26-1.81-23.47-13.15-29.11-25.39c-6.87-14.92-8.69-30.92-7.35-47.08c0.89-10.75,4.03-21.13,6.93-31.57
		c6.41-23.05,16.87-44.72,24.58-67.32c3-8.8,5.11-17.82,7.94-26.65c0.41-1.29,0.94-2.59,1.65-3.75c1.38-2.24,3.99-2.01,5.65,0.12
		c3.42,4.4,4.34,9.53,4.73,14.7c0.64,8.45-1.76,16.71-2.23,25.09c-0.64,11.58-6.53,21.86-8.34,33.15
		c-1.73,10.76-5.21,21.19-6.49,32.11c-1.08,9.15,0.3,18.03,0.89,27.04c0.52,7.96,2.62,15.44,6.61,22.32
		c3.21,5.53,7.09,10.74,11.52,15.49c4.04,4.33,3.62,8.14-0.81,10.44C201.88,572.47,200.6,570.28,198.72,571.56z"/>
</g>
<g id="cloth">
	<path class="st4" d="M134.81,551.72C135.4,551.28,134.92,552.39,134.81,551.72C134.9,551.45,134.89,551.99,134.81,551.72
		C134.62,551.43,135.01,552.01,134.81,551.72C134.24,549.96,135.01,553.41,134.81,551.72C135,551.42,134.63,552.01,134.81,551.72
		C134.63,551.44,135,552,134.81,551.72C134.17,549.95,134.53,553.32,134.81,551.72C135,551.42,134.63,552.02,134.81,551.72
		C134.62,551.44,135,552,134.81,551.72C134.17,550.19,134.79,553.1,134.81,551.72C135,551.42,134.63,552.02,134.81,551.72
		C134.62,551.44,135.01,552,134.81,551.72C134.18,550.19,134.81,553.1,134.81,551.72C135.39,551.41,135.38,552.02,134.81,551.72
		C134.36,550.53,134.48,552.77,134.81,551.72C134.84,551.43,134.79,552,134.81,551.72L134.81,551.72
		C135.01,551.42,134.62,552.02,134.81,551.72C134.62,551.43,135,552.01,134.81,551.72C134.18,550.21,134.83,553.1,134.81,551.72
		C135.5,551.39,135.49,552.04,134.81,551.72C134.31,550.46,135.06,552.9,134.81,551.72C135.46,551.4,135.46,552.04,134.81,551.72
		c1.47-9.05,6.26-41.62,8.72-50.45c0.67-0.32,0.67-0.65,0-0.97c1.05-4.05,2.1-8.1,3.15-12.15c0.69-0.33,0.69-0.65,0-0.98
		c4.03-14.46,8.51-28.75,14.04-42.68c6.93-17.46,13.63-35.01,20.54-52.48c3.67-9.29,7.78-18.39,11.23-27.76
		c1.25-3.39,1.86-7.1,3.02-10.6c0.2-0.05,0.41-0.08,0.62-0.09c0.31,0,0.62-0.01,0.93-0.01c12.25,11.93,27.43,18.54,42.44,25.53
		c12.65,5.89,25.63,10.69,39.09,14.13c7.08,1.81,14.19,3.38,21.47,3.97c0.31,0.21,0.61,0.41,0.92,0.62
		c7.33,0.49,5.47-2.02,9.44,11.82c1.09-5.64,2.16-11.3,9.33-10.8c0.28,0.57,0.57,0.56,0.86,0c10.28-1.11,20.26-3.64,30.18-6.63
		c16.47-4.97,32.31-11.58,47.49-19.8c8.3-4.49,16.8-8.86,23.32-16.22c0.55-0.62,1.13-1.12,2.01-0.98c0.3,0.01,0.61,0.01,0.91,0.02
		c0.22,0,0.43,0.03,0.64,0.08c1.38,8.81,5.25,16.68,8.52,24.81c9.92,24.71,19.56,49.53,28.75,74.56
		c4.13,11.25,8.28,23.02,11.26,34.65c0.2,0.33-0.2-0.33,0,0c2.61,11.86,9.7,50.15,11.76,62.14c0.25,1.45-0.33-1.42,0,0
		c0.2,0.33-0.2-0.33,0,0c0.07,1.04-0.07-1.04,0,0c0.19,0.33-0.19-0.33,0,0c0.07,1.31-0.07-1.31,0,0c0.01,0.29-0.01-0.29,0,0
		c0.19,0.3-0.19-0.3,0,0l0,0c0.03,0.28-0.03-0.28,0,0c-0.02,1.06,0.02-1.06,0,0c0.2,0.32-0.2-0.32,0,0c0.07,1.32-0.07-1.32,0,0
		c0,0.28,0-0.28,0,0c0.19,0.3-0.19-0.3,0,0c0.07,1.32-0.07-1.32,0,0c0.01,0.29-0.01-0.29,0,0c0.19,0.3-0.19-0.3,0,0
		c0.08,0.26-0.08-0.26,0,0c-0.35,1.42-0.67-1.28,0,0c-0.19,0.28,0.19-0.28,0,0c0.19,0.3-0.19-0.3,0,0c0.07,1.6-0.07-1.6,0,0
		c0,0.29,0-0.29,0,0c-0.08,0.27-0.08-0.27,0,0c-0.1,0.68-0.58-0.44,0,0l0,0c0,2.18,0-2.18,0,0c0.01,0.57,2.91,27.89,2.91,28.45
		c-0.01,0.54,0.27,4.81,0.26,5.35c0.18,2.48-1.34-2.38,0,0c-2.03,12.07-10.06,22.91-19.04,28.95
		c-17.11,11.5-35.22,21.07-54.11,29.16c-13.43,5.75-27.25,10.07-41.12,14.27c-4.85,1.47-9.93,2.09-15.54,3.22
		c-9.15-33.52-18.54-67.07-27.28-100.82c-8.74-33.76-15.79-67.9-21.69-102.36c-1.85,7.4-2.67,14.75-4.15,21.98
		c-1.57,7.66-2.61,15.44-4.05,23.13c-3.06,16.37-7.02,32.53-11.02,48.68c-3.99,16.12-8.3,32.15-12.59,48.18
		c-4.91,18.31-9.97,36.58-14.92,54.88c-1.07,3.95-2.52,4.96-6.47,4.04c-20.73-4.84-40.99-11.31-60.31-20.52
		c-17.8-8.48-35.24-17.77-51.17-29.78c-5.91-4.46-10.81-9.79-12.93-17.43C131.18,587.18,134.94,555.34,134.81,551.72z"/>
</g>
<g id="eyeleft">
	<g>
		<path class="st5" d="M382.09,284.39c1.08,17.21-13.77,28.41-25.88,28.55c-14.74,0.18-27.53-12.95-27.56-28.01
			c-0.03-15.39,11.91-27.74,26.84-27.76C371.06,257.15,382.06,268.4,382.09,284.39z M355.7,262.8c-11.55-0.01-21.04,9.93-21,22
			c0.04,11.93,9.4,21.75,20.81,21.84c11.55,0.1,21.12-9.77,21.17-21.83C376.73,272.74,367.26,262.81,355.7,262.8z"/>
		<path class="st6" d="M355.7,262.8c11.56,0.01,21.03,9.94,20.98,22.01c-0.05,12.06-9.61,21.92-21.17,21.83
			c-11.41-0.09-20.77-9.91-20.81-21.84C334.66,272.73,344.15,262.79,355.7,262.8z"/>
	</g>
</g>
<g id="beak">
	<g>
		<g>
			<g>
				<path class="st7" d="M315.45,389.85c-4.45,2.95-6.71,2.99-10.53-0.37c-5.81-5.12-11.63-10.23-17.47-15.32
					c-6.01-5.23-11.55-10.84-15.76-17.26c-1.24-2.53-2.1-5.72-2.63-8.89c-0.39-2.35-0.92-5.39-0.14-8.41
					c3.9,9.84,11.56,17.47,19.68,24.71c6.5,5.79,13.62,11.06,20.44,16.57c1.16,0.94,2.22,0.89,3.44,0.05"/>
			</g>
		</g>
		<g>
			<g>
				<path class="st7" d="M306.52,390.1c2.09,2.7,6.71,2.99,10.53-0.37c5.81-5.12,11.63-10.23,17.47-15.32
					c6.01-5.23,11.55-10.84,15.76-17.26c1.24-2.53,2.1-5.72,2.63-8.89c0.39-2.35,0.92-5.39,0.14-8.41
					c-3.9,9.84-11.56,17.47-19.68,24.71c-6.5,5.79-13.62,11.06-20.44,16.57c-1.16,0.94-2.22,0.89-3.44,0.05"/>
				<path class="st8" d="M309.48,381.19c1.22,0.84,2.27,0.89,3.44-0.05c6.83-5.51,13.95-10.78,20.44-16.57
					c8.12-7.24,17.38-14.14,19.68-24.71c0.37-7.96-4.34-14.2-9.14-20.39c-4.85-6.26-10.4-12.05-16.97-16.96
					c-5.02-3.75-8.27-8.05-15.94-7.55c-7.68-0.5-10.92,3.54-15.94,7.3c-6.58,4.91-12.12,10.7-16.97,16.96
					c-4.8,6.19-9.51,12.44-9.14,20.39c2.3,10.57,11.56,17.47,19.68,24.71c6.5,5.79,13.62,11.06,20.44,16.57
					c1.16,0.94,2.22,0.89,3.44,0.05"/>
			</g>
		</g>
	</g>
</g>
<g id="eyeright">
	<g>
		<path class="st5" d="M291.29,284.72c1.08,17.21-13.77,28.41-25.88,28.55c-14.74,0.18-27.53-12.95-27.56-28.01
			c-0.03-15.39,11.91-27.74,26.84-27.76C280.26,257.48,291.25,268.73,291.29,284.72z M264.89,263.13c-11.55-0.01-21.04,9.93-21,22
			c0.04,11.93,9.4,21.75,20.81,21.84c11.55,0.1,21.12-9.77,21.17-21.83C285.92,273.08,276.45,263.14,264.89,263.13z"/>
		<path class="st6" d="M264.89,263.13c11.56,0.01,21.03,9.94,20.98,22.01c-0.05,12.06-9.61,21.92-21.17,21.83
			c-11.41-0.09-20.77-9.91-20.81-21.84C243.85,273.06,253.34,263.13,264.89,263.13z"/>
	</g>
</g>
<g id="eyeballright">
	<path class="st9" d="M274.08,284.6c0.07,5.4-4.25,9.96-9.46,9.99c-5.2,0.02-9.56-4.52-9.52-9.92c0.03-5.26,4.2-9.67,9.27-9.8
		C269.57,274.72,274.02,279.18,274.08,284.6z"/>
</g>
<g id="eyeballleft">
	<path class="st9" d="M364.89,284.6c0.07,5.4-4.25,9.96-9.46,9.99c-5.2,0.02-9.56-4.52-9.52-9.92c0.03-5.26,4.2-9.67,9.27-9.8
		C360.38,274.72,364.82,279.18,364.89,284.6z"/>
</g>
<g id="browright">
	<g>
		<g>
			<path d="M367.78,246.89c-14.05,2.49-27,5.6-39.16,12.49c-3.25,1.84-6.13,5.25-8.68,8.59c-2.58,3.38-2.12,5.25,1.17,7.41
				c5.55,3.64,11.59,4.12,17.4,2.3c10.49-3.27,20.87-7.21,31.18-11.37c2.95-1.19,5.78-3.67,8.15-6.34c2.89-3.25,2.44-7.69-1.03-9.77
				C373.76,248.39,370.3,247.77,367.78,246.89z"/>
		</g>
	</g>
</g>
<g id="browleft">
	<g>
		<g>
			<path d="M250.13,247.23c14.05,2.49,27,5.6,39.16,12.49c3.25,1.84,6.13,5.25,8.68,8.59c2.58,3.38,2.12,5.25-1.17,7.41
				c-5.55,3.64-11.59,4.12-17.4,2.3c-10.49-3.27-20.87-7.21-31.18-11.37c-2.95-1.19-5.78-3.67-8.15-6.34
				c-2.89-3.25-2.44-7.69,1.03-9.77C244.15,248.73,247.62,248.11,250.13,247.23z"/>
		</g>
	</g>
</g>
<g id="eyepieceholder">
	<g>
		<g>
			<path class="st10" d="M429.31,303.82c2.68,12.76-4.55,21.62-12.36,27.8c-6.1,4.83-14.27-1.61-14.39-11.13
				c-0.05-4.29-1.24-8.39-1.04-12.67c0.16-3.58-2.33-4.17-4.82-4.56c-5.08-0.78-7.07-2.99-7.04-8.63
				c0.05-8.01-0.89-16.09,0.93-24.01c0.28-1.24,0.77-3.25,1.46-3.41c4.93-1.14,4.58-5.33,5.36-9.31c1.66-8.48,8.69-11.59,16.82-8.03
				c7.03,3.08,9.42,9.58,10.89,16.84c-3.21,2.01-7.54,3.9-7.05,8.43c0.84,7.74,1.36,15.5,2.19,23.23c0.28,2.59-0.69,5.98,1.79,7.82
				C425.55,305.51,426.57,303.55,429.31,303.82z"/>
			<path class="st11" d="M429.31,303.82c-2.33,0.93-3.94,2.88-7.24,2.37c-2.35-1.24-1.51-5.23-1.79-7.82
				c-0.83-7.73-1.35-15.49-2.19-23.23c-0.49-4.53,3.83-6.42,7.05-8.43c1.4,9.97,2.75,19.95,4.25,29.91
				C429.75,299.06,430.01,301.42,429.31,303.82z"/>
		</g>
	</g>
</g>
<g id="eyepiece">
	<g>
		<g>
			<path class="st12" d="M361.97,316.57c-10.23,0.1-18.43-2.53-26.13-9.1c-4.09-3.5-8.39-6.75-12.15-10.64
				c-2.12-2.19-2.85-4.7-3.18-7.71c-0.36-3.28-0.12-6.24-0.32-9.18c-0.04-7.68,4.68-11.58,9.13-16.05c2.06-2.07,5.15-2.09,7.88-2.12
				c12.86-0.13,25.73-0.39,38.58,0.04c11.34,0.38,17.56,6.42,18.19,18.07c0.3,5.5,0.06,11.02,0.05,16.54
				c-0.01,5.3-3.74,8.64-6.87,12.12C380.27,316.17,372.52,316.84,361.97,316.57z M328.36,280.95c1.04-7.02,3.56-9.05,10.38-9.8
				c3.38-0.37,7.01,0.04,10.27-1.77c-4.69-1.06-9.19-1.38-13.82-0.39C329.09,270.28,325.09,275.92,328.36,280.95z M380.27,303.7
				c-3.75,5.76-10.11,5.76-16.66,6.96C370.62,313.32,379.38,310.21,380.27,303.7z"/>
			<path class="st13" d="M328.36,280.95c-3.27-5.03,0.73-10.67,6.83-11.96c4.63-0.98,9.13-0.67,13.82,0.39
				c-3.26,1.81-6.89,1.39-10.27,1.77C331.92,271.9,329.39,273.93,328.36,280.95z"/>
			<path class="st13" d="M380.27,303.7c-0.89,6.5-9.65,9.62-16.66,6.96C370.16,309.46,376.52,309.46,380.27,303.7z"/>
		</g>
	</g>
</g>
<g id="hat">
	<g>
		<g>
			<path class="st4" d="M231.26,170.74c1.84-18.8,2.51-37.81,6.63-56.2c1.16-5.18-2.36-4.27-4.19-4.76
				c-8.04-2.15-16.19-3.72-24.23-5.93c-2.79-0.77-6.48-1.1-7.45-5.24c-1.24-5.28,1.96-8.93,4.58-12.15
				c19.99-24.57,43.4-36.35,72.17-28.96c29.05,7.46,55.63,21.22,77.46,46.13c15.28,17.43,22.82,41.03,30.91,63.95
				c-1.49,0.5-2.96,1.25-4.48,1.47c-22.79,3.3-45.69,5.23-68.62,5.57C286.41,175.01,258.82,173.1,231.26,170.74z"/>
			<path class="st4" d="M435.93,220.85c0.7,0.63,1.42,1.23,2.15,1.82c13.17,10.73,11.36,23.05-3.95,27.92
				c-9.02,2.87-18.44,3.13-27.75,4.11c-4.92,0.52-10.2,1.4-15.12,1.94c-0.25,0.22,0.25-0.22,0,0c-50.61,5.58-101.7,5.41-152.42,4.32
				c-0.36-0.01-1.84-0.26-2.19-0.38c-0.5-0.17,0.9-0.01,0,0c-17.27-0.81-35.49-3.65-52.3-8.55c-4.83-1.41-11.57-2.02-12.25-9.37
				c-0.67-7.27,5.11-11.32,9.77-14.62c13.89-9.83,29.37-14.95,44.3-21.68c0.51,0.7,0.99,1.97,1.55,2.03
				c30.44,3.07,60.94,4.54,91.44,2.75c18.16-1.06,36.28-3.31,54.37-5.67c6.72-0.87,13.75,0.99,20.19-2.7
				c0.39-0.22,0.84-0.28,1.26-0.13c13.63,4.83,27.08,10.32,40.01,17.55C435.31,220.41,435.62,220.63,435.93,220.85z"/>
			<path class="st14" d="M394.08,202.1c0.13,0.81-0.32,1.77-0.98,2.15c-6.32,3.67-12.67,1.82-19.72,3.48
				c-16.74,1.9-36.02,3.98-54.56,5.62c-30.64,2.02-61.27,0.36-91.83-3.11c-0.27-0.03-0.71-0.32-0.77-0.84
				c-0.21-1.68-0.07-1.78-0.07-2.76c0.02-4.27,0.57-9.31,1.3-13.88c0.56-7.64,1.87-15.41,2.62-23.15c0.11-1.09,0.99-1.9,1.97-1.8
				c26.98,2.59,53.98,4.66,81.02,4.21c22.94-0.38,45.83-2.57,68.62-6.3c0.9-0.15,1.78-0.5,2.66-0.89c0.98-0.43,2.09,0.14,2.41,1.25
				C390.12,177.72,392.13,189.9,394.08,202.1z"/>
		</g>
	</g>
</g>
</svg>
